<svg xmlns="http://www.w3.org/2000/svg" viewBox="0 0 1280 720" role="img" aria-label="Scoped automation API">
  <defs>
    <linearGradient id="bg" x1="0" y1="0" x2="1" y2="1">
      <stop offset="0" stop-color="#f4fbff"/>
      <stop offset="1" stop-color="#fff8ed"/>
    </linearGradient>
    <filter id="shadow" x="-20%" y="-20%" width="140%" height="140%">
      <feDropShadow dx="0" dy="18" stdDeviation="28" flood-color="#27445a" flood-opacity=".14"/>
    </filter>
  </defs>
  <rect width="1280" height="720" fill="url(#bg)"/>
  <path d="M370 360h170M740 360h150" stroke="#b64a3d" stroke-width="13" stroke-linecap="round" stroke-dasharray="2 25"/>
  <g filter="url(#shadow)">
    <rect x="190" y="250" width="210" height="220" rx="34" fill="#fff"/>
    <rect x="540" y="204" width="200" height="312" rx="38" fill="#fff"/>
    <rect x="890" y="180" width="210" height="88" rx="26" fill="#fff"/>
    <rect x="890" y="316" width="210" height="88" rx="26" fill="#fff"/>
    <rect x="890" y="452" width="210" height="88" rx="26" fill="#fff"/>
  </g>
  <circle cx="295" cy="360" r="48" fill="#fff4ee" stroke="#a83d31" stroke-width="10"/>
  <path d="M295 334v52M269 360h52" stroke="#a83d31" stroke-width="10" stroke-linecap="round"/>
  <rect x="602" y="270" width="76" height="26" rx="13" fill="#a83d31"/>
  <rect x="594" y="340" width="104" height="20" rx="10" fill="#cbd7dd"/>
  <rect x="594" y="390" width="82" height="20" rx="10" fill="#dfe8ec"/>
  <g fill="#1d8b5e">
    <circle cx="940" cy="224" r="14"/>
    <circle cx="940" cy="360" r="14"/>
    <circle cx="940" cy="496" r="14"/>
  </g>
  <g fill="#65736e">
    <rect x="980" y="214" width="78" height="20" rx="10"/>
    <rect x="980" y="350" width="92" height="20" rx="10"/>
    <rect x="980" y="486" width="66" height="20" rx="10"/>
  </g>
</svg>
