<svg xmlns="http://www.w3.org/2000/svg" viewBox="0 0 1280 720" role="img" aria-label="Dual mode editor">
  <rect width="1280" height="720" fill="#f7f4ee"/>
  <g filter="url(#shadow)">
    <rect x="150" y="154" width="980" height="412" rx="36" fill="#fff" stroke="#e5dbcc" stroke-width="4"/>
    <rect x="150" y="154" width="980" height="68" rx="36" fill="#f1e9dd"/>
  </g>
  <defs>
    <filter id="shadow" x="-20%" y="-20%" width="140%" height="140%">
      <feDropShadow dx="0" dy="18" stdDeviation="22" flood-color="#7f3b30" flood-opacity=".12"/>
    </filter>
  </defs>
  <circle cx="206" cy="188" r="10" fill="#d87b6d"/>
  <circle cx="238" cy="188" r="10" fill="#d8b35f"/>
  <circle cx="270" cy="188" r="10" fill="#78aa79"/>
  <rect x="220" y="284" width="340" height="32" rx="16" fill="#111" opacity=".82"/>
  <rect x="220" y="352" width="420" height="22" rx="11" fill="#756f66" opacity=".26"/>
  <rect x="220" y="402" width="300" height="22" rx="11" fill="#756f66" opacity=".26"/>
  <rect x="720" y="282" width="250" height="160" rx="24" fill="#a63d2f" opacity=".12"/>
  <rect x="760" y="322" width="170" height="22" rx="11" fill="#a63d2f"/>
  <rect x="760" y="374" width="112" height="18" rx="9" fill="#a63d2f" opacity=".55"/>
  <rect x="760" y="418" width="140" height="18" rx="9" fill="#a63d2f" opacity=".55"/>
</svg>
