<svg xmlns="http://www.w3.org/2000/svg" viewBox="0 0 1280 720" role="img" aria-label="Go runtime">
  <defs>
    <linearGradient id="bg" x1="0" y1="0" x2="1" y2="1">
      <stop offset="0" stop-color="#e9fbff"/>
      <stop offset="1" stop-color="#c8eef7"/>
    </linearGradient>
    <filter id="shadow" x="-20%" y="-20%" width="140%" height="140%">
      <feDropShadow dx="0" dy="18" stdDeviation="22" flood-color="#0079a1" flood-opacity=".16"/>
    </filter>
  </defs>
  <rect width="1280" height="720" rx="0" fill="url(#bg)"/>
  <g stroke="#79c8dc" stroke-width="2" opacity=".35">
    <path d="M0 140H1280M0 280H1280M0 420H1280M0 560H1280"/>
    <path d="M180 0V720M360 0V720M540 0V720M720 0V720M900 0V720M1080 0V720"/>
  </g>
  <g filter="url(#shadow)">
    <rect x="240" y="178" width="800" height="364" rx="36" fill="#fff"/>
    <rect x="292" y="234" width="360" height="56" rx="14" fill="#00add8" opacity=".18"/>
    <rect x="292" y="324" width="696" height="26" rx="13" fill="#0b7285" opacity=".12"/>
    <rect x="292" y="378" width="548" height="26" rx="13" fill="#0b7285" opacity=".12"/>
    <rect x="292" y="432" width="620" height="26" rx="13" fill="#0b7285" opacity=".12"/>
    <g transform="translate(760 230)">
      <rect x="0" y="0" width="190" height="190" rx="28" fill="#00add8"/>
      <path d="M44 96h100" stroke="#fff" stroke-width="18" stroke-linecap="round"/>
      <path d="M67 62h72" stroke="#fff" stroke-width="18" stroke-linecap="round" opacity=".8"/>
      <circle cx="64" cy="134" r="18" fill="#fff"/>
      <circle cx="126" cy="134" r="18" fill="#fff"/>
    </g>
  </g>
</svg>
