<svg xmlns="http://www.w3.org/2000/svg" viewBox="0 0 1280 720" role="img" aria-label="SEO checklist">
  <defs>
    <linearGradient id="bg" x1="0" y1="0" x2="1" y2="1">
      <stop offset="0" stop-color="#f2fff7"/>
      <stop offset="1" stop-color="#fff8ed"/>
    </linearGradient>
    <filter id="shadow" x="-20%" y="-20%" width="140%" height="140%">
      <feDropShadow dx="0" dy="18" stdDeviation="28" flood-color="#21483a" flood-opacity=".14"/>
    </filter>
  </defs>
  <rect width="1280" height="720" fill="url(#bg)"/>
  <g filter="url(#shadow)">
    <rect x="190" y="170" width="420" height="360" rx="42" fill="#fff"/>
    <rect x="724" y="170" width="366" height="360" rx="42" fill="#fff"/>
  </g>
  <rect x="190" y="170" width="420" height="70" rx="42" fill="#fff6ef"/>
  <rect x="250" y="286" width="186" height="30" rx="15" fill="#a83d31"/>
  <rect x="250" y="356" width="262" height="22" rx="11" fill="#cad8ce"/>
  <rect x="250" y="412" width="206" height="22" rx="11" fill="#dce7df"/>
  <path d="M640 350h58" stroke="#b64a3d" stroke-width="13" stroke-linecap="round" stroke-dasharray="2 22"/>
  <g fill="none" stroke="#1d8b5e" stroke-width="15" stroke-linecap="round" stroke-linejoin="round">
    <path d="M788 266l28 28 58-72"/>
    <path d="M788 352l28 28 58-72"/>
    <path d="M788 438l28 28 58-72"/>
  </g>
  <g fill="#65736e">
    <rect x="916" y="258" width="126" height="22" rx="11"/>
    <rect x="916" y="344" width="154" height="22" rx="11"/>
    <rect x="916" y="430" width="104" height="22" rx="11"/>
  </g>
</svg>
