<svg xmlns="http://www.w3.org/2000/svg" viewBox="0 0 1280 720" role="img" aria-label="In-app update pipeline">
  <defs>
    <linearGradient id="bg" x1="0" y1="0" x2="1" y2="1">
      <stop offset="0" stop-color="#fff8ed"/>
      <stop offset="1" stop-color="#f1fbf5"/>
    </linearGradient>
    <filter id="shadow" x="-20%" y="-20%" width="140%" height="140%">
      <feDropShadow dx="0" dy="18" stdDeviation="28" flood-color="#4a312a" flood-opacity=".14"/>
    </filter>
  </defs>
  <rect width="1280" height="720" fill="url(#bg)"/>
  <path d="M386 360h86M638 360h86M890 360h70" stroke="#b64a3d" stroke-width="13" stroke-linecap="round" stroke-dasharray="2 25"/>
  <g filter="url(#shadow)" fill="#fff">
    <rect x="212" y="246" width="190" height="228" rx="32"/>
    <rect x="466" y="246" width="190" height="228" rx="32"/>
    <rect x="720" y="246" width="190" height="228" rx="32"/>
    <rect x="960" y="246" width="190" height="228" rx="32"/>
  </g>
  <rect x="258" y="302" width="98" height="24" rx="12" fill="#a83d31"/>
  <rect x="258" y="358" width="98" height="16" rx="8" fill="#d4c8be"/>
  <rect x="258" y="398" width="78" height="16" rx="8" fill="#d4c8be"/>
  <path d="M561 290l66 36v84l-66 36-66-36v-84l66-36z" fill="#fff3ed" stroke="#a83d31" stroke-width="8" stroke-linejoin="round"/>
  <path d="M495 326l66 36 66-36M561 362v84" fill="none" stroke="#a83d31" stroke-width="8" stroke-linecap="round"/>
  <path d="M768 372l32 32 66-84" fill="none" stroke="#1d8b5e" stroke-width="16" stroke-linecap="round" stroke-linejoin="round"/>
  <path d="M1024 316a66 66 0 1 1-14 96M1024 316v54h54" fill="none" stroke="#a83d31" stroke-width="12" stroke-linecap="round" stroke-linejoin="round"/>
</svg>
