<svg xmlns="http://www.w3.org/2000/svg" viewBox="0 0 1280 560" role="img" aria-label="Realistic SEO checklist with rendered page and search preview">
  <defs>
    <linearGradient id="bg" x1="0" y1="0" x2="1" y2="1">
      <stop offset="0" stop-color="#f2fff7"/>
      <stop offset="1" stop-color="#fff8ed"/>
    </linearGradient>
    <filter id="shadow" x="-20%" y="-20%" width="140%" height="140%">
      <feDropShadow dx="0" dy="18" stdDeviation="24" flood-color="#24443a" flood-opacity=".13"/>
    </filter>
    <style>
      text { font-family: -apple-system, BlinkMacSystemFont, "Segoe UI", sans-serif; }
      .ink { fill: #17191c; }
      .muted { fill: #7d807a; }
      .accent { fill: #a83d31; }
      .small { font-size: 14px; }
      .label { font-size: 16px; font-weight: 700; }
      .title { font-size: 27px; font-weight: 800; }
    </style>
  </defs>
  <rect width="1280" height="560" rx="34" fill="url(#bg)"/>
  <g filter="url(#shadow)">
    <rect x="92" y="76" width="594" height="414" rx="26" fill="#fff"/>
    <rect x="736" y="76" width="452" height="414" rx="26" fill="#fff"/>
  </g>
  <rect x="92" y="76" width="594" height="54" rx="26" fill="#faf7f1"/>
  <circle cx="126" cy="103" r="6" fill="#d7c9bd"/>
  <circle cx="148" cy="103" r="6" fill="#d7c9bd"/>
  <circle cx="170" cy="103" r="6" fill="#d7c9bd"/>
  <rect x="218" y="91" width="238" height="24" rx="12" fill="#fff" stroke="#e5ddd3"/>
  <text x="238" y="108" class="small muted">/zh/posts/seo-content</text>
  <rect x="126" y="166" width="62" height="18" rx="9" fill="#e9f4ff"/>
  <text x="200" y="181" class="small" fill="#2f71d0">SEO</text>
  <text x="126" y="230" class="title ink">Content pages that search engines can read</text>
  <rect x="126" y="266" width="438" height="12" rx="6" fill="#cbd7dd"/>
  <rect x="126" y="292" width="384" height="12" rx="6" fill="#dce6ea"/>
  <rect x="126" y="340" width="500" height="110" rx="18" fill="#f6fbff" stroke="#d9e7f1"/>
  <rect x="158" y="374" width="138" height="14" rx="7" fill="#a83d31"/>
  <rect x="158" y="410" width="306" height="10" rx="5" fill="#d2dde5"/>
  <rect x="490" y="372" width="88" height="52" rx="12" fill="#fff" stroke="#dce8f0"/>

  <text x="776" y="124" class="title ink">Search preview</text>
  <rect x="776" y="160" width="352" height="100" rx="18" fill="#f7fbff" stroke="#dce8f0"/>
  <text x="804" y="194" font-size="18" fill="#2364c7">gcms: lightweight CMS for product sites</text>
  <text x="804" y="222" class="small" fill="#1f7a4f">https://ccvar.com/zh/posts/...</text>
  <rect x="804" y="238" width="268" height="8" rx="4" fill="#d4dee8"/>
  <rect x="776" y="288" width="352" height="114" rx="18" fill="#fffaf3" stroke="#e9ddce"/>
  <text x="804" y="322" class="label ink">Structured checks</text>
  <g stroke="#1d8b5e" stroke-width="6" stroke-linecap="round" stroke-linejoin="round" fill="none">
    <path d="M808 354l10 10 20-26"/>
    <path d="M808 384l10 10 20-26"/>
  </g>
  <text x="856" y="358" class="small muted">canonical + hreflang</text>
  <text x="856" y="388" class="small muted">sitemap + RSS + JSON-LD</text>
  <rect x="776" y="426" width="186" height="36" rx="14" fill="#1d8b5e"/>
  <text x="804" y="449" class="small" fill="#fff">Ready to index</text>
</svg>
