<svg xmlns="http://www.w3.org/2000/svg" viewBox="0 0 1280 560" role="img" aria-label="Theme gallery with realistic website previews">
  <defs>
    <linearGradient id="bg" x1="0" y1="0" x2="1" y2="1">
      <stop offset="0" stop-color="#fff8ed"/>
      <stop offset=".54" stop-color="#f8fbff"/>
      <stop offset="1" stop-color="#edf8ff"/>
    </linearGradient>
    <linearGradient id="hero" x1="0" y1="0" x2="1" y2="1">
      <stop offset="0" stop-color="#fff7ed"/>
      <stop offset="1" stop-color="#eaf7ff"/>
    </linearGradient>
    <filter id="shadow" x="-20%" y="-20%" width="140%" height="140%">
      <feDropShadow dx="0" dy="18" stdDeviation="24" flood-color="#44342e" flood-opacity=".16"/>
    </filter>
    <style>
      text { font-family: -apple-system, BlinkMacSystemFont, "Segoe UI", sans-serif; }
      .muted { fill: #7d7871; }
      .ink { fill: #15171a; }
      .accent { fill: #a83d31; }
      .line { stroke: #e3ded4; }
      .tiny { font-size: 12px; }
      .small { font-size: 15px; }
      .label { font-size: 17px; font-weight: 700; }
      .title { font-size: 34px; font-weight: 800; }
    </style>
  </defs>
  <rect width="1280" height="560" rx="34" fill="url(#bg)"/>
  <g filter="url(#shadow)">
    <rect x="92" y="86" width="224" height="392" rx="28" fill="#fffaf3"/>
    <rect x="344" y="68" width="720" height="424" rx="28" fill="#fff"/>
    <rect x="806" y="204" width="348" height="230" rx="24" fill="#0d141d"/>
  </g>
  <rect x="116" y="116" width="176" height="48" rx="14" fill="#fff" stroke="#e5ddd2"/>
  <text x="140" y="146" class="label accent">Theme library</text>
  <g>
    <rect x="116" y="194" width="176" height="70" rx="16" fill="#fff" stroke="#b64a3d" stroke-width="2"/>
    <rect x="134" y="212" width="62" height="10" rx="5" fill="#a83d31"/>
    <rect x="134" y="236" width="118" height="8" rx="4" fill="#d9d1c7"/>
    <circle cx="268" cy="229" r="10" fill="#a83d31"/>
    <text x="134" y="286" class="small ink">Editorial</text>

    <rect x="116" y="298" width="176" height="70" rx="16" fill="#101820" stroke="#263445"/>
    <rect x="134" y="316" width="74" height="10" rx="5" fill="#5df2b1"/>
    <rect x="134" y="340" width="112" height="8" rx="4" fill="#344456"/>
    <text x="134" y="390" class="small muted">Terminal</text>

    <rect x="116" y="402" width="176" height="46" rx="16" fill="#f6f8ff" stroke="#dddfff"/>
    <rect x="134" y="419" width="72" height="8" rx="4" fill="#745cff"/>
    <rect x="134" y="438" width="108" height="7" rx="3.5" fill="#d8d2ff"/>
  </g>

  <rect x="344" y="68" width="720" height="54" rx="28" fill="#faf7f1"/>
  <circle cx="378" cy="95" r="6" fill="#d9c9bc"/>
  <circle cx="400" cy="95" r="6" fill="#d9c9bc"/>
  <circle cx="422" cy="95" r="6" fill="#d9c9bc"/>
  <rect x="466" y="84" width="302" height="22" rx="11" fill="#fff" stroke="#e5ddd2"/>
  <text x="488" y="100" class="tiny muted">ccvar.com</text>
  <rect x="344" y="122" width="720" height="70" fill="#fff" stroke="#eee8df"/>
  <rect x="386" y="143" width="30" height="30" rx="8" fill="#a83d31"/>
  <text x="429" y="164" class="small ink">gcms</text>
  <text x="792" y="164" class="tiny ink">Home</text>
  <text x="842" y="164" class="tiny muted">Docs</text>
  <text x="888" y="164" class="tiny muted">Resources</text>
  <text x="966" y="164" class="tiny muted">Contact</text>

  <rect x="344" y="192" width="720" height="300" fill="url(#hero)"/>
  <text x="394" y="255" class="tiny accent">GO · SQLITE · SEO</text>
  <text x="394" y="305" class="title ink">One content set,</text>
  <text x="394" y="350" class="title ink">many public faces.</text>
  <rect x="396" y="382" width="260" height="13" rx="6.5" fill="#c8d3dd"/>
  <rect x="396" y="410" width="210" height="13" rx="6.5" fill="#dce5eb"/>
  <rect x="724" y="242" width="236" height="164" rx="24" fill="#fff" stroke="#e4ded5"/>
  <rect x="752" y="272" width="96" height="18" rx="9" fill="#a83d31"/>
  <rect x="752" y="318" width="160" height="12" rx="6" fill="#d8d0c5"/>
  <rect x="752" y="346" width="132" height="12" rx="6" fill="#e7e1d8"/>
  <rect x="826" y="390" width="96" height="8" rx="4" fill="#a83d31" opacity=".28"/>

  <rect x="806" y="204" width="348" height="48" rx="24" fill="#111b27"/>
  <circle cx="834" cy="228" r="5" fill="#5df2b1"/>
  <circle cx="854" cy="228" r="5" fill="#36556a"/>
  <circle cx="874" cy="228" r="5" fill="#36556a"/>
  <text x="902" y="233" class="tiny" fill="#6cf0b5">Terminal theme</text>
  <text x="842" y="292" font-size="24" font-weight="800" fill="#f7fbff">~/gcms</text>
  <rect x="842" y="324" width="152" height="12" rx="6" fill="#5df2b1"/>
  <rect x="842" y="354" width="194" height="10" rx="5" fill="#31485c"/>
  <rect x="842" y="382" width="150" height="10" rx="5" fill="#31485c"/>

  <g filter="url(#shadow)">
    <rect x="716" y="420" width="326" height="78" rx="22" fill="#fff"/>
  </g>
  <text x="748" y="453" class="label ink">Preview before switching</text>
  <rect x="748" y="470" width="120" height="10" rx="5" fill="#d8d0c5"/>
  <rect x="888" y="470" width="94" height="10" rx="5" fill="#a83d31" opacity=".65"/>
</svg>
