<svg viewBox="0 0 32 32" width="32" height="32" fill="none" fill-rule="evenodd" xmlns="http://www.w3.org/2000/svg">
  <path fill="#5c85de" d="M15 23h-2v2.05h2v.92h2.09V15.868A5.065 5.065 0 0021 11a5 5 0 10-6 4.9V19h-3v2.05h3zm1-22 12 5v8.22c0 7.4-5.12 14.32-12 16-6.88-1.68-12-8.6-12-16V6zm0 7.25a2.75 2.75 0 110 5.5 2.75 2.75 0 010-5.5"></path>
  <path fill="#3367d6" d="M16 25.97h1.09V15.868A5.065 5.065 0 0021 11a5 5 0 00-5-5V1l12 5v8.22c0 7.4-5.12 14.32-12 16zm0-17.72a2.75 2.75 0 011.052 5.29c-.342.142-.34.224-1.052.222z"></path>
</svg>
